<svg xmlns="http://www.w3.org/2000/svg" width="128" height="128" viewBox="0 0 96 96"><path d="M90 19.781c-3.14 1.36-6.305 2.367-9.797 2.696 3.492-2.016 6.305-5.415 7.688-9.118-3.493 2.016-6.985 3.375-10.829 4.055C73.547 14.04 69 12 64.102 12c-9.446 0-17.157 7.453-17.157 16.594 0 1.336 0 2.695.352 3.726C29.25 32.32 16.875 22.148 8.484 12c-1.757 2.367-2.46 5.414-2.46 8.46 0 5.743 3.163 10.83 7.71 13.876-2.812-.328-5.601-1.008-7.71-2.016v.328c0 8.133 5.953 14.883 13.664 16.243-1.407.328-2.813.68-4.57.68-1.032 0-2.087 0-3.141-.329 2.109 6.774 11.882 14.555 19.57 14.555C25.594 68.18 20.062 72 9 72H6c7.688 4.734 16.805 6 26.25 6 31.852 0 49.008-25.383 49.008-47.39v-2.016c3.492-2.39 6.305-5.414 8.742-8.813" fill="#CBCBCB"/></svg>