<svg xmlns="http://www.w3.org/2000/svg" width="128" height="128" viewBox="0 0 96 96"><path d="M28.64 6C16.173 6 6 16.172 6 28.64v32.743C6 73.828 16.172 84 28.64 84h32.743C73.828 84 84 73.828 84 61.36V28.64C84 16.173 73.828 6 61.36 6zm0 6h32.72C70.593 12 78 19.406 78 28.64v32.72A16.58 16.58 0 0161.383 78H28.64A16.58 16.58 0 0112 61.383V28.64C12 19.406 19.406 12 28.64 12zM69 18a2.99 2.99 0 00-3 3c0 1.664 1.336 3 3 3s3-1.336 3-3-1.336-3-3-3zm-24 6c-11.555 0-21 9.445-21 21s9.445 21 21 21 21-9.445 21-21-9.445-21-21-21zm0 6c8.32 0 15 6.68 15 15s-6.68 15-15 15-15-6.68-15-15 6.68-15 15-15zm0 0" fill="#CBCBCB"/></svg>