<svg xmlns="http://www.w3.org/2000/svg" viewBox="0 0 16 16" width="30" height="30"><path d="M8 1c-2.127 0-3.472.555-4.197 1.625C3.078 3.695 3 5.104 3 6.75c0 2.422.8 4.234 1.818 5.434C5.836 13.383 7.024 14 8 14s2.164-.617 3.182-1.816C12.199 10.984 13 9.172 13 6.75c0-1.646-.078-3.055-.803-4.125C11.472 1.555 10.127 1 8 1zm0 1c1.964 0 2.867.445 3.37 1.188.25.37.408.86.503 1.457.01.058.011.13.02.19-1.115-.34-3.683-1.23-5.706-2.65C6.663 2.066 7.255 2 8 2zm-2.861.66c.97.758 2.079 1.378 3.138 1.865.378.174.748.332 1.102.475h-5.29c.087-.752.245-1.374.542-1.813.135-.199.303-.373.508-.527zM4.018 6h7.964c.009.245.018.484.018.75 0 .275-.012.541-.033.797a8.236 8.236 0 01-.238 1.416c-.004.013-.009.024-.012.037H4.283A8.632 8.632 0 014 6.75c0-.266.01-.505.018-.75zM5 7s.5 1 1.5 1a.5.5 0 00.5-.5C7 7 5 7 5 7zm6 0s-.5 0-1 .063c-.5.062-1 .187-1 .437a.5.5 0 00.5.5c1 0 1.5-1 1.5-1zm-4.385 3h4.75a6.232 6.232 0 01-.945 1.535c-.077.09-.16.153-.238.235a4.869 4.869 0 00-.559-.403c-.824-.498-1.948-.955-3.008-1.367zm-1.783.408c.424.151.865.307 1.393.512 1.213.472 2.528 1.083 3.166 1.514C8.83 12.804 8.306 13 8 13c-.494 0-1.555-.445-2.42-1.465a6.135 6.135 0 01-.748-1.127z"/></svg>