<svg xmlns="http://www.w3.org/2000/svg" viewBox="0 0 16 16" width="30" height="30"><path d="M7.5 1C4.867 1 2.314 2.035 2.314 2.035A.5.5 0 002 2.5v5c0 2.208 1.35 4.056 2.646 5.354a15.178 15.178 0 002.596 2.076.5.5 0 00.516 0s1.298-.78 2.596-2.076C11.65 11.556 13 9.708 13 7.5v-5a.5.5 0 00-.314-.465S10.133 1 7.5 1zm0 1c2.122 0 4.07.705 4.5.865V7.5c0 1.792-1.15 3.444-2.354 4.646A10.865 10.865 0 018 13.527V11H7v2.527c-.397-.27-.93-.664-1.646-1.38C4.15 10.943 3 9.291 3 7.5V2.865C3.43 2.705 5.378 2 7.5 2zm-2.875.75c-.758 0-1.348.303-1.348.303l.446.894s.41-.197.902-.197c.492 0 1.002.122 1.428.973l.894-.446C6.373 3.128 5.383 2.75 4.625 2.75zm5.75 0c-.758 0-1.748.378-2.322 1.527l.894.446c.426-.851.936-.973 1.428-.973.492 0 .902.197.902.197l.446-.894s-.59-.303-1.348-.303zM5 5c-.61 0-1 .5-1 .5s.39.5 1 .5 1-.5 1-.5S5.61 5 5 5zm5 0c-.61 0-1 .5-1 .5s.39.5 1 .5 1-.5 1-.5-.39-.5-1-.5zM7.492 8a.5.5 0 00-.346.146L6.293 9h-.586l-.853-.854-.708.708 1 1A.5.5 0 005.5 10h1a.5.5 0 00.354-.146l.646-.647.646.647A.5.5 0 008.5 10h1a.5.5 0 00.354-.146l1-1-.708-.708L9.293 9h-.586l-.853-.854A.5.5 0 007.492 8z"/></svg>