<svg xmlns="http://www.w3.org/2000/svg" viewBox="0 0 16 16" width="30" height="30"><path d="M3.5 1a.5.5 0 00-.5.5v2.865a15.085 15.085 0 01-2.29-.818l-.42.906c.93.432 1.909.768 2.913 1.02-.256-.016-.496-.01-.709.054a1.162 1.162 0 00-.713.6c-.255.553-.078 1.102.13 1.621.406 1.016 1.141 1.988 1.171 2.027l1.693 2.965A2.501 2.501 0 006.945 14h1.11c.896 0 1.725-.482 2.17-1.26l1.693-2.965c.03-.039.765-1.01 1.172-2.027.207-.519.384-1.068.129-1.621a1.162 1.162 0 00-.713-.6c-.213-.063-.453-.07-.71-.054a16.35 16.35 0 002.915-1.02l-.422-.906c-.73.34-1.503.598-2.289.818V1.5a.5.5 0 00-.5-.5h-8zM4 2h7v1H4V2zm0 2h7v.633a17.04 17.04 0 01-7 0V4zm-.428 1.563c2.567.582 5.29.582 7.856 0l.154.931c.328-.055.54-.036.635-.008.096.029.082.03.095.059.027.057.016.413-.152.832-.335.838-1.06 1.822-1.06 1.822l-.018.026-1.1 1.921A1.568 1.568 0 008.887 9.75c-.41-.125-.904-.25-1.387-.25s-.977.125-1.387.25c-.621.19-1.05.752-1.095 1.396l-1.1-1.921-.018-.026s-.725-.984-1.06-1.822c-.168-.419-.179-.775-.152-.832.013-.028 0-.03.095-.059.096-.028.307-.047.635.008l.154-.931zM4.758 6A.757.757 0 004 6.758v.484c0 .42.339.758.758.758H5c1 0 2-.556 2-1.242A.757.757 0 006.242 6H4.758zm4 0A.757.757 0 008 6.758C8 7.444 9 8 10 8h.242A.757.757 0 0011 7.242v-.484A.757.757 0 0010.242 6H8.758zm-2.692 5h2.868c.038.077.066.16.066.252V12H6v-.748c0-.092.028-.175.066-.252z"/></svg>