<svg xmlns="http://www.w3.org/2000/svg" width="128" height="128" viewBox="0 0 96 96"><path d="M21 6C12.75 6 6 12.75 6 21v48c0 8.25 6.75 15 15 15h48c8.25 0 15-6.75 15-15V21c0-8.25-6.75-15-15-15zm0 6h48c5.012 0 9 3.988 9 9v48c0 5.012-3.988 9-9 9h-9.574V53.8h8.379l1.254-9.655h-9.633v-6.153c0-2.797.777-4.699 4.816-4.699h5.156v-8.637c-.894-.12-3.953-.375-7.511-.375-7.43 0-12.504 4.492-12.504 12.75v7.114L42 44.12v9.656l7.383.024V78H21c-5.012 0-9-3.988-9-9V21c0-5.012 3.988-9 9-9zm0 0" fill="#CBCBCB"/></svg>