<svg width="73" height="13" fill="none" xmlns="http://www.w3.org/2000/svg"><path d="M6.5 0l1.46 4.491h4.722l-3.82 2.776 1.459 4.492L6.5 8.983l-3.82 2.776 1.459-4.492-3.82-2.776H5.04L6.5 0zm45 0l1.46 4.491h4.722l-3.82 2.776 1.459 4.492L51.5 8.983l-3.82 2.776 1.459-4.492-3.82-2.776h4.722L51.5 0zm-15 0l1.46 4.491h4.722l-3.82 2.776 1.459 4.492L36.5 8.983l-3.82 2.776 1.459-4.492-3.82-2.776h4.722L36.5 0zm-15 0l1.46 4.491h4.722l-3.82 2.776 1.459 4.492L21.5 8.983l-3.82 2.776 1.459-4.492-3.82-2.776h4.722L21.5 0z" fill="#E4EC8C"/><path d="M66.5 0l1.46 4.491h4.722l-3.82 2.776 1.459 4.492L66.5 8.983l-3.82 2.776 1.459-4.492-3.82-2.776h4.722L66.5 0z" fill="#C6C6C6"/></svg>